<svg width="40" height="40" viewBox="0 0 40 40" fill="none" xmlns="http://www.w3.org/2000/svg">
<path d="M34.1667 4.16663H5.83337L8.33337 32.5L20 35.8333L31.6667 32.5L34.1667 4.16663Z" fill="#0277BD"/>
<path d="M20 6.66663V33.25L29.3333 30.5833L31.4167 6.66663H20Z" fill="#039BE5"/>
<path d="M27.5833 10.8334H20V14.1667H24.0833L23.8333 17.5H20V20.8334H23.6667L23.4167 24.5834L20 25.75V29.25L26.5833 27.0834L27.1667 17.5L27.5833 10.8334Z" fill="white"/>
<path d="M20 10.8334V14.1667H12.5834L12.3334 10.8334H20ZM16.1667 17.5L16.3334 20.8334H20V17.5H16.1667ZM16.5 22.5H13.1667L13.4167 27.0834L20 29.25V25.75L16.5834 24.5834L16.5 22.5Z" fill="#EEEEEE"/>
</svg>
