<svg width="40" height="40" viewBox="0 0 40 40" fill="none" xmlns="http://www.w3.org/2000/svg">
<path d="M35.1666 18.4166L21.5833 4.83329C21.1666 4.41663 20.5833 4.16663 20 4.16663C19.4166 4.16663 18.8333 4.41663 18.4166 4.83329L15.5 7.74996L18.9166 11.1666C19.25 11 19.5833 10.9166 20 10.9166C21.4166 10.9166 22.5 12 22.5 13.4166C22.5 13.8333 22.4166 14.1666 22.25 14.5L25.5833 17.8333C25.9166 17.6666 26.25 17.5833 26.6666 17.5833C28.0833 17.5833 29.1666 18.6666 29.1666 20.0833C29.1666 21.5 28.0833 22.5833 26.6666 22.5833C25.25 22.5833 24.1666 21.5 24.1666 20.0833C24.1666 19.6666 24.25 19.3333 24.4166 19L21.0833 15.6666C21 15.6666 20.9166 15.75 20.8333 15.75V24.4166C21.8333 24.75 22.5 25.6666 22.5 26.75C22.5 28.1666 21.4166 29.25 20 29.25C18.5833 29.25 17.5 28.1666 17.5 26.75C17.5 25.6666 18.1666 24.75 19.1666 24.4166V15.6666C18.1666 15.3333 17.5 14.4166 17.5 13.3333C17.5 12.9166 17.5833 12.5833 17.75 12.25L14.3333 8.83329L4.83329 18.4166C4.41663 18.8333 4.16663 19.4166 4.16663 20C4.16663 20.5833 4.41663 21.1666 4.83329 21.5833L18.4166 35.1666C18.8333 35.5833 19.4166 35.8333 20 35.8333C20.5833 35.8333 21.1666 35.5833 21.5833 35.1666L35.1666 21.5833C35.5833 21.1666 35.8333 20.5833 35.8333 20C35.8333 19.4166 35.5833 18.8333 35.1666 18.4166Z" fill="#F4511E"/>
</svg>
