<svg width="40" height="40" viewBox="0 0 40 40" fill="none" xmlns="http://www.w3.org/2000/svg">
<path d="M20 3.33337C10.795 3.33337 3.33337 10.795 3.33337 20C3.33337 27.4059 8.16754 33.6759 14.85 35.8467H25.15C31.8325 33.6759 36.6667 27.4059 36.6667 20C36.6667 10.795 29.205 3.33337 20 3.33337Z" fill="#2100C4"/>
<path d="M30.8334 19.5833C30.8334 17.1692 30.1042 15.445 28.8709 14.23C29.6592 12.8283 28.6159 10 28.6159 10C26.5326 10.4167 24.9767 11.25 23.9417 11.98C22.7184 11.7625 21.3926 11.6667 20.0001 11.6667C18.5751 11.6667 17.2176 11.765 15.9717 11.9942C14.9367 11.2617 13.3759 10.42 11.2784 10C11.2784 10 10.2084 12.91 11.0659 14.2883C9.86923 15.5 9.16673 17.2092 9.16673 19.5833C9.16673 24.685 12.3992 26.7317 16.8409 27.3117C16.2217 28.0392 15.8334 28.97 15.8334 30V30.2542C15.6976 30.2917 15.5567 30.3242 15.4051 30.3442C14.4826 30.4633 13.5126 30.3442 13.0442 30.0667C12.5759 29.7892 12.0201 29.1642 11.6034 28.5558C11.2517 28.0425 10.5509 26.8625 8.75673 26.9067C8.44339 26.8983 8.30006 27.1925 8.34006 27.3758C8.37589 27.5375 8.51756 27.7925 9.08673 28.0008C9.65756 28.21 9.97256 28.7125 10.2851 29.2158C10.6334 29.7775 10.6326 31.2725 12.4201 32.0625C13.6951 32.6267 14.9101 32.5575 15.8342 32.335L15.8351 35.0008C15.8351 35.5333 15.3476 35.9383 14.8426 35.845C16.4626 36.39 18.1942 36.6667 20.0001 36.6667C21.8051 36.6667 23.5359 36.39 25.1584 35.8467C24.6534 35.9392 24.1667 35.5342 24.1667 35.0017V30C24.1667 28.97 23.7784 28.0392 23.1592 27.3117C27.6009 26.7317 30.8334 24.685 30.8334 19.5833Z" fill="#DDBAFF"/>
<path d="M12.4999 15L15.6983 13.9341C16.5399 13.6533 16.7241 12.5308 16.0024 12.0158L15.9716 11.9941C13.9724 12.3608 12.2674 13.07 11.0649 14.2883C11.3299 14.715 11.7741 15 12.4999 15Z" fill="#DDBAFF"/>
<path d="M23.9108 12.0016C23.1791 12.5208 23.3649 13.6575 24.2158 13.9408L27.3933 15C28.1541 15 28.6108 14.6916 28.8708 14.23C27.6541 13.0316 25.9433 12.335 23.9416 11.9791C23.9308 11.9866 23.9208 11.9941 23.9108 12.0016Z" fill="#DDBAFF"/>
<path d="M20 25.8334C18.7292 25.8334 17.605 26.4142 16.8408 27.3117C17.8408 27.4425 18.9008 27.5 20 27.5C21.0992 27.5 22.1592 27.4425 23.1592 27.3117C22.395 26.4142 21.2708 25.8334 20 25.8334Z" fill="#DDBAFF"/>
</svg>
