<svg width="40" height="40" viewBox="0 0 40 40" fill="none" xmlns="http://www.w3.org/2000/svg">
<path d="M34.1667 4.16663H5.83337L8.33337 32.5L20 35.8333L31.6667 32.5L34.1667 4.16663Z" fill="#E65100"/>
<path d="M20 6.66663V33.25L29.3333 30.5833L31.4167 6.66663H20Z" fill="#FF6D00"/>
<path d="M20 20.8334V17.5H27.1667L26.5833 27.0834L20 29.25V25.75L23.4167 24.5834L23.6667 20.8334H20ZM27.4167 14.1667L27.6667 10.8334H20V14.1667H27.4167Z" fill="white"/>
<path d="M20 25.75V29.25L13.4166 27.0834L13.0833 22.5H16.4166L16.5833 24.5834L20 25.75ZM15.9166 14.1667H20V10.8334H12.4166L13 20.8334H20V17.5H16.1666L15.9166 14.1667Z" fill="#EEEEEE"/>
</svg>
