<svg width="40" height="40" viewBox="0 0 40 40" fill="none" xmlns="http://www.w3.org/2000/svg">
<path d="M5 35V5H35V35H5Z" fill="#FFD600"/>
<path d="M24.6151 27.4559C25.1918 28.3925 25.8184 29.29 27.1459 29.29C28.2609 29.29 28.8459 28.7359 28.8459 27.9692C28.8459 27.0517 28.2409 26.7259 27.0143 26.1917L26.3418 25.905C24.4009 25.0817 23.1101 24.05 23.1101 21.8709C23.1101 19.8625 24.6476 18.3342 27.0501 18.3342C28.7609 18.3342 29.9901 18.9267 30.8768 20.4784L28.7818 21.8175C28.3209 20.9942 27.8226 20.67 27.0501 20.67C26.2618 20.67 25.7626 21.1675 25.7626 21.8175C25.7626 22.6209 26.2626 22.9459 27.4168 23.4434L28.0893 23.73C30.3768 24.7042 31.6668 25.6992 31.6668 27.9359C31.6668 30.3459 29.7634 31.6667 27.2084 31.6667C24.7093 31.6667 23.2901 30.4125 22.5001 28.86L24.6151 27.4559ZM14.9601 27.5242C15.3818 28.2792 16.0226 28.86 16.9443 28.86C17.8259 28.86 18.3334 28.5117 18.3334 27.1575V18.3334H21.1109V27.5842C21.1109 30.39 19.4834 31.6667 17.1068 31.6667C14.9593 31.6667 13.4093 30.2117 12.7776 28.86L14.9601 27.5242Z" fill="#000001"/>
</svg>
