<svg width="229" height="38" viewBox="0 0 229 38" fill="none" xmlns="http://www.w3.org/2000/svg">
<path d="M14.64 6.184C13.552 6.184 12.768 6.43999 12.288 6.95199C11.808 7.46399 11.568 8.328 11.568 9.54399V11.512H17.568L16.752 16.792H11.568V37H3.98404V16.792H0.144043V11.512H3.98404V9.256C3.98404 6.69599 4.81604 4.61599 6.48004 3.016C8.17604 1.38399 10.592 0.567993 13.728 0.567993C16.256 0.567993 18.576 1.11199 20.688 2.2L18.624 7.14399C17.344 6.50399 16.016 6.184 14.64 6.184Z" fill="#141414"/>
<path d="M48.2614 10.696C50.2774 10.696 51.8934 11.384 53.1094 12.76C54.3254 14.104 54.9334 15.976 54.9334 18.376V37H47.3494V19.672C47.3494 17.4 46.6294 16.264 45.1894 16.264C44.3894 16.264 43.6854 16.536 43.0774 17.08C42.4694 17.624 41.8774 18.456 41.3014 19.576V37H33.7174V19.672C33.7174 17.4 32.9974 16.264 31.5574 16.264C30.7894 16.264 30.0854 16.552 29.4454 17.128C28.8374 17.672 28.2454 18.488 27.6694 19.576V37H20.0854V11.512H26.7094L27.2374 14.488C28.2294 13.208 29.3174 12.264 30.5014 11.656C31.7174 11.016 33.0934 10.696 34.6294 10.696C36.0694 10.696 37.3014 11.048 38.3254 11.752C39.3814 12.456 40.1494 13.448 40.6294 14.728C41.6534 13.352 42.7734 12.344 43.9894 11.704C45.2374 11.032 46.6614 10.696 48.2614 10.696Z" fill="#141414"/>
<path d="M71.6723 10.696C75.5763 10.696 78.6323 11.896 80.8403 14.296C83.0483 16.664 84.1523 19.992 84.1523 24.28C84.1523 27 83.6403 29.384 82.6163 31.432C81.6243 33.448 80.1843 35.016 78.2963 36.136C76.4403 37.256 74.2323 37.816 71.6723 37.816C67.8003 37.816 64.7443 36.632 62.5043 34.264C60.2963 31.864 59.1923 28.52 59.1923 24.232C59.1923 21.512 59.6883 19.144 60.6803 17.128C61.7043 15.08 63.1443 13.496 65.0003 12.376C66.8883 11.256 69.1123 10.696 71.6723 10.696ZM71.6723 16.264C70.1363 16.264 68.9843 16.92 68.2163 18.232C67.4483 19.512 67.0643 21.512 67.0643 24.232C67.0643 27.016 67.4323 29.048 68.1683 30.328C68.9363 31.608 70.1043 32.248 71.6723 32.248C73.2083 32.248 74.3603 31.608 75.1283 30.328C75.8963 29.016 76.2803 27 76.2803 24.28C76.2803 21.496 75.8963 19.464 75.1283 18.184C74.3923 16.904 73.2403 16.264 71.6723 16.264Z" fill="#141414"/>
<path d="M104.648 35.8C103.72 36.44 102.632 36.936 101.384 37.288C100.168 37.64 98.9515 37.816 97.7355 37.816C92.1675 37.784 89.3835 34.712 89.3835 28.6V16.792H85.7835V11.512H89.3835V5.99199L96.9675 5.12799V11.512H102.824L102.008 16.792H96.9675V28.504C96.9675 29.688 97.1595 30.536 97.5435 31.048C97.9275 31.56 98.5355 31.816 99.3675 31.816C100.232 31.816 101.144 31.544 102.104 31L104.648 35.8Z" fill="#141414"/>
<path d="M126.873 29.608C126.873 30.568 127.001 31.272 127.257 31.72C127.545 32.168 127.993 32.504 128.601 32.728L127.017 37.672C125.449 37.544 124.169 37.208 123.177 36.664C122.185 36.088 121.417 35.192 120.873 33.976C119.209 36.536 116.649 37.816 113.193 37.816C110.665 37.816 108.649 37.08 107.145 35.608C105.641 34.136 104.889 32.216 104.889 29.848C104.889 27.064 105.913 24.936 107.961 23.464C110.009 21.992 112.969 21.256 116.841 21.256H119.433V20.152C119.433 18.648 119.113 17.624 118.473 17.08C117.833 16.504 116.713 16.216 115.113 16.216C114.281 16.216 113.273 16.344 112.089 16.6C110.905 16.824 109.689 17.144 108.441 17.56L106.713 12.568C108.313 11.96 109.945 11.496 111.609 11.176C113.305 10.856 114.873 10.696 116.313 10.696C119.961 10.696 122.633 11.448 124.329 12.952C126.025 14.456 126.873 16.712 126.873 19.72V29.608ZM115.401 32.392C117.129 32.392 118.473 31.576 119.433 29.944V25.432H117.561C115.833 25.432 114.537 25.736 113.673 26.344C112.841 26.952 112.425 27.896 112.425 29.176C112.425 30.2 112.681 31 113.193 31.576C113.737 32.12 114.473 32.392 115.401 32.392Z" fill="#141414"/>
<path d="M131.721 24.904V19.048H147.033V24.904H131.721Z" fill="#141414"/>
<path d="M174.98 1.38399V37H168.26L167.876 34.024C166.084 36.552 163.668 37.816 160.628 37.816C157.46 37.816 155.044 36.6 153.38 34.168C151.748 31.736 150.932 28.408 150.932 24.184C150.932 21.592 151.364 19.272 152.228 17.224C153.092 15.176 154.308 13.576 155.876 12.424C157.476 11.272 159.3 10.696 161.348 10.696C163.78 10.696 165.796 11.496 167.396 13.096V0.567993L174.98 1.38399ZM162.98 32.248C164.74 32.248 166.212 31.288 167.396 29.368V18.376C166.788 17.64 166.164 17.096 165.524 16.744C164.916 16.392 164.212 16.216 163.412 16.216C162.004 16.216 160.884 16.872 160.052 18.184C159.22 19.496 158.804 21.512 158.804 24.232C158.804 27.208 159.156 29.288 159.86 30.472C160.596 31.656 161.636 32.248 162.98 32.248Z" fill="#141414"/>
<path d="M203.138 23.752C203.138 24.808 203.09 25.72 202.994 26.488H187.202C187.458 28.632 188.066 30.136 189.026 31C189.986 31.864 191.314 32.296 193.01 32.296C194.034 32.296 195.026 32.12 195.986 31.768C196.946 31.384 197.986 30.808 199.106 30.04L202.226 34.264C199.25 36.632 195.938 37.816 192.29 37.816C188.162 37.816 184.994 36.6 182.786 34.168C180.578 31.736 179.474 28.472 179.474 24.376C179.474 21.784 179.938 19.464 180.866 17.416C181.794 15.336 183.154 13.704 184.946 12.52C186.738 11.304 188.882 10.696 191.378 10.696C195.058 10.696 197.938 11.848 200.018 14.152C202.098 16.456 203.138 19.656 203.138 23.752ZM195.698 21.592C195.634 17.688 194.258 15.736 191.57 15.736C190.258 15.736 189.234 16.216 188.498 17.176C187.794 18.136 187.362 19.72 187.202 21.928H195.698V21.592Z" fill="#141414"/>
<path d="M228.959 11.512L220.943 37H211.967L203.759 11.512H212.015L216.527 31.24L221.231 11.512H228.959Z" fill="#141414"/>
</svg>
